inDegrees=yes
name=ik_S44_A01_T01
DataType=double
version=3
OpenSimVersion=4.3-2021-08-27-4bc7ad9
endheader
time	pelvis_tilt	pelvis_list	pelvis_rotation	pelvis_tx	pelvis_ty	pelvis_tz	hip_flexion_r	hip_adduction_r	hip_rotation_r	knee_angle_r	knee_angle_r_beta	ankle_angle_r	subtalar_angle_r	mtp_angle_r	hip_flexion_l	hip_adduction_l	hip_rotation_l	knee_angle_l	knee_angle_l_beta	ankle_angle_l	subtalar_angle_l	mtp_angle_l	lumbar_extension	lumbar_bending	lumbar_rotation	arm_flex_r	arm_add_r	arm_rot_r	elbow_flex_r	pro_sup_r	wrist_flex_r	wrist_dev_r	arm_flex_l	arm_add_l	arm_rot_l	elbow_flex_l	pro_sup_l	wrist_flex_l	wrist_dev_l
0	0	0	0	0	0.9399999999999999	0	0	0	0	0	0	0	0	0	0	0	0	0	0	0	0	0	0	0	0	0	0	0	0	89.99999999963507	0	0	0	0	0	0	89.99999999869995	0	0
0.04	0.4617731361830415	-4.753659353191297	-89.16305390305176	0	0.9399999999999999	0	-7.71512051707133	-7.411440354730087	-4.54659097703571	-4.298969405707279	-0.07503117057209592	0	0	0	-4.619307417118507	-6.012941698276031	-4.761068398862229	-1.926797636746036	-0.033628962780864	0	0	0	0	0	0	2.492453097642469	-2.492453097642468	0.4480233344566024	11.66643688730705	89.5519766915104	0	0	2.492453097642469	-2.492453097642468	0.4480233344566024	11.66643688730705	89.55197669065933	0	0
0.06	0.4708113672461052	-4.70120502461272	-89.17229316287101	0	0.9399999999999999	0	-7.685789201033624	-7.435689833947977	-4.546057952165879	-4.285758352937494	-0.07480059420360846	0	0	0	-4.545378088747325	-5.995367476937278	-4.783221083264435	-1.881739941930031	-0.03284255765296594	0	0	0	0	0	0	2.544699604503597	-2.544699604503596	0.4575840529500487	11.84315879384835	89.5424159735783	0	0	2.544699604503597	-2.544699604503596	0.4575840529500487	11.84315879384835	89.542415972729	0	0
0.08	0.4700669432299537	-4.678581927947067	-89.16072550547773	0	0.9399999999999999	0	-7.675037398659462	-7.449513226117317	-4.553431678840208	-4.317954915175751	-0.07536253022248932	0	0	0	-4.522268872562441	-5.998478522443234	-4.759759202327689	-1.854659208739844	-0.03236990969494307	0	0	0	0	0	0	2.653585463386841	-2.65358546338684	0.4775566809620063	12.20430651143154	89.52244334673979	0	0	2.653585463386841	-2.65358546338684	0.4775566809620063	12.20430651143154	89.52244334589422	0	0
0.1	0.4764391872983972	-4.629448037890662	-89.14989236842614	0	0.9399999999999999	0	-7.65144644658537	-7.426101917852462	-4.54664761926396	-4.351997612093983	-0.07595668736997101	0	0	0	-4.477958350802799	-5.951996770535858	-4.780589917454002	-1.842183305861394	-0.03215216411255508	0	0	0	0	0	0	3.248693370847616	-3.248693370847615	0.5860392876644808	14.27358001679671	89.41396074640024	0	0	3.248693370847616	-3.248693370847615	0.5860392876644808	14.27358001679671	89.41396074557504	0	0
0.12	0.4848855173277078	-4.566564245817752	-89.13188963382801	0	0.9399999999999999	0	-7.571427275885387	-7.430488145323578	-4.563398941472815	-4.28044592724657	-0.07470787488403431	0	0	0	-4.419274955497318	-5.946900920370564	-4.792759901109512	-1.800140973026444	-0.03141838697936589	0	0	0	0	0	0	3.846656730456021	-3.84665673045602	0.6941842212668177	16.20965023736981	89.30581581912953	0	0	3.846656730456021	-3.84665673045602	0.6941842212668177	16.20965023736981	89.30581581832459	0	0
0.14	0.4875316734958641	-4.527392200958131	-89.1449376660939	0	0.9399999999999999	0	-7.54021926407605	-7.38734939717944	-4.46788061768978	-4.303124447845013	-0.07510368973795849	0	0	0	-4.39679011027282	-5.947745473582598	-4.81954224787668	-1.807504551833268	-0.03154690567427503	0	0	0	0	0	0	4.350692771938727	-4.350692771938727	0.7847802270835322	17.90286559597751	89.21521981861073	0	0	4.350692771938727	-4.350692771938727	0.7847802270835322	17.90286559597751	89.21521981782277	0	0
0.16	0.4963181341998372	-4.505723996773238	-89.15748940074562	0	0.9399999999999999	0	-7.54978639735764	-7.398550955881527	-4.441754549898245	-4.329828302358814	-0.07556975992219786	0	0	0	-4.399580783363181	-5.939782053018539	-4.828064766543122	-1.813531436752369	-0.03165209465975213	0	0	0	0	0	0	4.73357428207375	-4.73357428207375	0.8536902340076717	19.27458016247915	89.14630981571909	0	0	4.73357428207375	-4.73357428207375	0.8536902340076717	19.27458016247915	89.14630981494398	0	0
0.18	0.5056973224585972	-4.455287670379573	-89.13818979810453	0	0.9399999999999999	0	-7.557787169766081	-7.389071614085458	-4.40341312920053	-4.402777505671291	-0.07684296370670735	0	0	0	-4.354309930519197	-5.918174582819917	-4.804949029455048	-1.802014673817607	-0.0314510892273689	0	0	0	0	0	0	4.816118707464179	-4.816118707464179	0.8682900143474839	19.51574520494621	89.1317100362298	0	0	4.816118707464179	-4.816118707464179	0.8682900143474839	19.51574520494621	89.13171003545739	0	0
0.2	0.5107102900797381	-4.459357239370548	-89.11992779143758	0	0.9399999999999999	0	-7.630014815688739	-7.384454518789543	-4.4064835002845	-4.496228515780436	-0.07847399152242644	0	0	0	-4.380383476704518	-5.914505522192324	-4.786554895017115	-1.822480204788145	-0.03180828012597366	0	0	0	0	0	0	4.898858971601769	-4.898858971601769	0.8829181833657948	19.76049349255635	89.11708186806361	0	0	4.898858971601769	-4.898858971601769	0.8829181833657948	19.76049349255635	89.11708186729393	0	0
0.22	0.5109606155010421	-4.391418203684365	-89.13398102956339	0	0.9399999999999999	0	-7.460608399316262	-7.382103251809762	-4.354991640263792	-4.080967278631782	-0.07122631567827742	0	0	0	-4.309008163000541	-5.938991266295234	-4.863438890274343	-1.610864984716369	-0.02811489778838877	0	0	0	0	0	0	5.384801123129601	-5.384801123129601	0.9690807423809515	21.36125462531909	89.03091931407263	0	0	5.384801123129601	-5.384801123129601	0.9690807423809515	21.36125462531909	89.03091931331909	0	0
0.24	0.5282545227387307	-4.359756899054308	-89.10438220872926	0	0.9399999999999999	0	-7.510714889611364	-7.364382466800312	-4.412815464863565	-4.374975558478178	-0.07635772818972193	0	0	0	-4.355096248318168	-5.918090414017328	-4.818923382654667	-1.788198079355856	-0.03120994416259852	0	0	0	0	0	0	5.641765075139563	-5.641765075139563	1.015154576616162	22.25499148074601	88.98484548253153	0	0	5.641765075139563	-5.641765075139563	1.015154576616162	22.25499148074601	88.98484548178669	0	0
0.26	0.5268925998414622	-4.352206154613636	-89.11372409498492	0	0.9399999999999999	0	-7.508979513259421	-7.37466120302598	-4.394194916149462	-4.351932350238997	-0.07595554833572553	0	0	0	-4.340533594309018	-5.917062928678478	-4.824924898169523	-1.738734728336228	-0.03034664582823633	0	0	0	0	0	0	5.69529819009759	-5.69529819009759	1.024499801942176	22.41738655543224	88.97550025774855	0	0	5.69529819009759	-5.69529819009759	1.024499801942176	22.41738655543224	88.97550025700545	0	0
0.28	0.5177996399181829	-4.329667710702955	-89.16047097497686	0	0.9399999999999999	0	-7.507241596561996	-7.373100680103748	-4.398973006026975	-4.350518982362512	-0.07593088041273896	0	0	0	-4.340030006616916	-5.912726284125977	-4.792778455612497	-1.737389182153945	-0.03032316161711785	0	0	0	0	0	0	5.695742067157885	-5.695742067157885	1.024581271231922	22.41955200480203	88.97541878846361	0	0	5.695742067157885	-5.695742067157885	1.024581271231922	22.41955200480203	88.97541878772051	0	0
0.3	0.5313474393783836	-4.238797556503137	-89.159512346146	0	0.9399999999999999	0	-7.414809504595361	-7.371207201363402	-4.460184812505657	-4.321048135198787	-0.07541651709637992	0	0	0	-4.245752807545457	-5.886418882952275	-4.701650907526854	-1.725587876071994	-0.03011718996995218	0	0	0	0	0	0	5.698982459996375	-5.698982459996373	1.025186263177016	22.43622464183058	88.97481379655432	0	0	5.698982459996375	-5.698982459996373	1.025186263177016	22.43622464183058	88.97481379581127	0	0
0.32	0.5410139857812577	-4.177838248455297	-89.18379983377788	0	0.9399999999999999	0	-7.359613363023131	-7.380475409857636	-4.497619988811326	-4.249075787955578	-0.07416036266659724	0	0	0	-4.207227780135006	-5.887930230424653	-4.681246588268757	-1.737754592199131	-0.03032953922552621	0	0	0	0	0	0	6.146505498515525	-6.146505498515523	1.103598265336764	23.87813400545431	88.89640179895511	0	0	6.146505498515525	-6.146505498515523	1.103598265336764	23.87813400545431	88.89640179822673	0	0
0.34	0.5363678053826773	-4.096019140438895	-89.20900862189878	0	0.9399999999999999	0	-7.248543963554198	-7.369294728162694	-4.55877999981343	-4.136533466222452	-0.07219612860451544	0	0	0	-4.087406479503136	-5.877857405122698	-4.71527792342093	-1.646707829886845	-0.02874047344989613	0	0	0	0	0	0	6.624597818060601	-6.624597818060599	1.186806035129558	25.37875452360938	88.81319403399451	0	0	6.624597818060601	-6.624597818060599	1.186806035129558	25.37875452360938	88.81319403328172	0	0
0.36	0.5579685287018636	-4.015247300474505	-89.27564903027978	0	0.9399999999999999	0	-7.153970298700361	-7.423710305355235	-4.581944555368975	-4.101053584889592	-0.07157688785704015	0	0	0	-3.995826254824348	-5.823085026335034	-4.780699202365446	-1.593771359011748	-0.0278165577387396	0	0	0	0	0	0	7.066293455763414	-7.066293455763413	1.263064479740352	26.75317348456999	88.73693559380501	0	0	7.066293455763414	-7.066293455763413	1.263064479740352	26.75317348456999	88.73693559310649	0	0
0.3800000000000001	0.5658705940213734	-3.98420741465716	-89.29820007634913	0	0.9399999999999999	0	-7.166072055662557	-7.420939889003457	-4.697406108955094	-4.098844066888947	-0.07153832449304681	0	0	0	-3.984795810604382	-5.816712126134151	-4.808002633065807	-1.572905907578298	-0.02745238691131093	0	0	0	0	0	0	7.067616392139228	-7.067616392139227	1.263305366845145	26.75909793500776	88.73669470671439	0	0	7.067616392139228	-7.067616392139227	1.263305366845145	26.75909793500776	88.7366947060159	0	0
0.4000000000000001	0.5766855008103197	-3.910231387214365	-89.29659391875154	0	0.9399999999999999	0	-7.091168841326287	-7.411387022329801	-4.680039212932645	-4.021282441763383	-0.07018461876140816	0	0	0	-3.866715914753981	-5.786443687355541	-4.784295804356671	-1.490770532719534	-0.02601885418766572	0	0	0	0	0	0	7.111000216919535	-7.111000216919534	1.270833316365808	26.90324685660212	88.72916675763091	0	0	7.111000216919535	-7.111000216919534	1.270833316365808	26.90324685660212	88.72916675693382	0	0
0.4200000000000001	0.5779128413086944	-3.799818445520549	-89.29275617615531	0	0.9399999999999999	0	-7.030059771145977	-7.407350748237914	-4.648454363369768	-4.11124343183692	-0.07175473423654531	0	0	0	-3.712779844708099	-5.746745821531664	-4.803769738310591	-1.397935613508958	-0.02439857918661825	0	0	0	0	0	0	7.205506883034467	-7.205506883034465	1.286888594483139	27.1712977112716	88.71311148044087	0	0	7.205506883034467	-7.205506883034465	1.286888594483139	27.1712977112716	88.71311147974679	0	0
0.4400000000000001	0.5777003695527178	-3.737771559603459	-89.24990273556764	0	0.9399999999999999	0	-7.049584726706179	-7.404833716518785	-4.712627056179968	-4.186224797865489	-0.07306340595138688	0	0	0	-3.643442820218408	-5.768198613519667	-4.82033109303719	-1.308188138848239	-0.02283219025843851	0	0	0	0	0	0	7.271028230471183	-7.271028230471182	1.297985526093584	27.35548403455783	88.70201454947093	0	0	7.271028230471183	-7.271028230471182	1.297985526093584	27.35548403455783	88.70201454877892	0	0
0.4600000000000001	0.5666193871712113	-3.685709165636305	-89.23951593779411	0	0.9399999999999999	0	-7.003614492603426	-7.386573869287814	-4.717238549321626	-4.22513828646392	-0.07374257445086677	0	0	0	-3.563715987688189	-5.808329405491741	-4.850079959963598	-1.217092988087535	-0.02124227994506362	0	0	0	0	0	0	7.711136997797382	-7.711136997797376	1.373165192117473	28.68882886630483	88.62683488779585	0	0	7.711136997797382	-7.711136997797376	1.373165192117473	28.68882886630483	88.62683488711792	0	0
0.4800000000000001	0.5832420580268031	-3.649466008805951	-89.19005444593535	0	0.9399999999999999	0	-7.020528141918359	-7.382864684522206	-4.718108954955952	-4.227561737278423	-0.07378487164683999	0	0	0	-3.558305311377002	-5.829086250814823	-4.859504099638563	-1.217453915798909	-0.02124857932198877	0	0	0	0	0	0	7.711472822408665	-7.711472822408659	1.373224265988349	28.69016944490668	88.6267758139284	0	0	7.711472822408665	-7.711472822408659	1.373224265988349	28.69016944490668	88.62677581325052	0	0
0.5000000000000001	0.574910475728743	-3.575111376410433	-89.17169593028579	0	0.9399999999999999	0	-7.002993603930657	-7.356369526559712	-4.702594080303742	-4.338925442011272	-0.07572853496164698	0	0	0	-3.462618854223017	-5.847355563959441	-4.843153335767671	-1.213508130109543	-0.02117971237013127	0	0	0	0	0	0	7.78641023415273	-7.786410234152724	1.385851887811912	28.90237538745358	88.61414819283301	0	0	7.78641023415273	-7.786410234152724	1.385851887811912	28.90237538745358	88.61414819215749	0	0
